<svg xmlns="http://www.w3.org/2000/svg" viewBox="0 0 200 200" width="200" height="200">
  <!-- Círculo de fondo -->
  <circle cx="100" cy="100" r="90" fill="#C4AE94" stroke="none"/>
  
  <!-- Letra L cursiva -->
  <path d="M75 60 Q85 55, 95 60 Q105 65, 115 75 Q125 85, 130 100 Q135 115, 130 130 Q125 145, 115 155 Q105 165, 95 170 Q85 175, 75 170 Q65 165, 60 155 Q55 145, 55 130 Q50 115, 55 100 Q60 85, 70 75 Q80 65, 90 62 L90 130 Q90 140, 95 145 Q100 150, 110 150 Q120 150, 130 145 Q140 140, 145 130" 
        fill="#A0522D" 
        stroke="none"/>
  
  <!-- Trazo principal de la L -->
  <path d="M65 65 Q75 60, 85 65 Q95 70, 100 80 L100 125 Q100 135, 105 140 Q110 145, 120 145 Q130 145, 140 140" 
        fill="none" 
        stroke="#A0522D" 
        stroke-width="8" 
        stroke-linecap="round" 
        stroke-linejoin="round"/>
</svg> 